# xmcd
#
# Track frame offsets:
#       182
#       14210
#       27232
#       41035
#       61482
#       78827
#       97187
#       113525
#       128490
#       140460
#       156065
#       169397
#
# Disc length: 2427 seconds
#
# Revision: 1
# Processed by: cddbd v1.4PL0 Copyright (c) Steve Scherf et al.
# Submitted via: MusiCat 1.1
#
DISCID=9d09790c
DTITLE=Fabio Concato - A Dean Martin
DYEAR=1900
DGENRE=
TTITLE0=A Dean Martin
TTITLE1=Breve sogno
TTITLE2=P... come
TTITLE3=Vito
TTITLE4=Festa nera
TTITLE5=Mi fai compagnia
TTITLE6=Axen
TTITLE7=Misto di poesia
TTITLE8=Poterti avere qui
TTITLE9=Pussy
TTITLE10=Devi ridere
TTITLE11=Il barbone
EXTD=0\n\n\n
EXTT0=
EXTT1=
EXTT2=
EXTT3=
EXTT4=
EXTT5=
EXTT6=
EXTT7=
EXTT8=
EXTT9=
EXTT10=
EXTT11=
PLAYORDER=
